<svg xmlns="http://www.w3.org/2000/svg" viewBox="0 0 32 32"><path d="M22.3.6H9.7C6.2.6 3.4 3.4 3.4 6.9v6.3c0 3.5 2.8 6.3 6.3 6.3h12.6c3.5 0 6.3-2.8 6.3-6.3V6.9c0-3.4-2.8-6.3-6.3-6.3zM9.7 16.4c-.9 0-1.6-.7-1.6-1.6 0-.9.7-1.6 1.6-1.6.9 0 1.6.7 1.6 1.6 0 .9-.7 1.6-1.6 1.6zm12.6-6.3H9.7C8 10.1 6.6 8.7 6.6 7S8 3.8 9.7 3.8h12.6c1.7 0 3.1 1.4 3.1 3.1s-1.4 3.2-3.1 3.2zm3.8 10.5c-1.1.8-2.4 1.3-3.8 1.3H9.7c-1.4 0-2.8-.5-3.8-1.3s-2.5 0-2.5 1.3v3.2c0 3.5 2.8 6.3 6.3 6.3h12.6c3.5 0 6.3-2.8 6.3-6.3v-3.2c0-1.3-1.5-2-2.5-1.3zM9.7 28.2c-.9 0-1.6-.7-1.6-1.6S8.8 25 9.7 25c.9 0 1.6.7 1.6 1.6s-.7 1.6-1.6 1.6z" fill="#fff"/></svg>