<svg xmlns="http://www.w3.org/2000/svg" viewBox="0 0 32 32"><path d="M22.6 0H9.5C5.9 0 3 3 3 6.5V13c0 3.7 3 6.5 6.5 6.5h13.1c3.7 0 6.5-3 6.5-6.5V6.5C29.3 3 26.3 0 22.6 0zM9.5 16.5c-.9 0-1.6-.7-1.6-1.6 0-.9.7-1.6 1.6-1.6.9 0 1.6.7 1.6 1.6 0 .9-.7 1.6-1.6 1.6zm13.1-6.7H9.5c-1.8 0-3.3-1.5-3.3-3.3s1.5-3.3 3.3-3.3h13.1c1.8 0 3.3 1.5 3.3 3.3s-1.4 3.3-3.3 3.3zm4 11c-1.1.8-2.5 1.4-4 1.4H9.5c-1.5 0-2.9-.5-4-1.4-1-.8-2.6 0-2.6 1.4v3.3C3 29 5.9 32 9.5 32h13.1c3.7 0 6.5-3 6.5-6.5v-3.3c.2-1.4-1.4-2.2-2.5-1.4zM9.5 28.7c-.9 0-1.6-.7-1.6-1.6 0-.9.7-1.6 1.6-1.6.9 0 1.6.7 1.6 1.6 0 .9-.7 1.6-1.6 1.6z" fill="#1c1f23"/></svg>