<svg xmlns="http://www.w3.org/2000/svg" viewBox="0 0 32 32"><path fill="#FFF" d="M27.5 32h-23C2 32 0 30 0 27.5v-23C0 2 2 0 4.5 0h23C30 0 32 2 32 4.5v23c0 2.5-2 4.5-4.5 4.5z"/><path fill="#2F2E2B" d="M20.9 4h-9.8C8.4 4 6.2 6.2 6.2 8.9v4.9c0 2.7 2.2 4.9 4.9 4.9h9.8c2.7 0 4.9-2.2 4.9-4.9V8.9c0-2.7-2.2-4.9-4.9-4.9zm-9.8 12.3c-.7 0-1.2-.6-1.2-1.2 0-.7.6-1.2 1.2-1.2.7 0 1.2.6 1.2 1.2 0 .7-.5 1.2-1.2 1.2zm9.8-4.9h-9.8c-1.4 0-2.5-1.1-2.5-2.5s1.1-2.5 2.5-2.5h9.8c1.4 0 2.5 1.1 2.5 2.5s-1.1 2.5-2.5 2.5zm3 8.2c-.8.6-1.9 1-3 1h-9.8c-1.1 0-2.2-.4-3-1-.8-.6-1.9 0-1.9 1v2.5c0 2.7 2.2 4.9 4.9 4.9h9.8c2.7 0 4.9-2.2 4.9-4.9v-2.5c0-1-1.1-1.6-1.9-1zm-12.8 5.9c-.7 0-1.2-.6-1.2-1.2 0-.7.6-1.2 1.2-1.2.7 0 1.2.6 1.2 1.2 0 .7-.5 1.2-1.2 1.2z"/></svg>