<svg xmlns="http://www.w3.org/2000/svg" viewBox="0 0 32 32"><path d="M22 10.2c0 1.1-.9 2-2 2h-8c-1.1 0-2-.9-2-2s.9-2 2-2h8c1.1 0 2 1 2 2zm10-4.7v21c0 3-2.5 5.5-5.5 5.5h-21c-3 0-5.5-2.5-5.5-5.5v-21C0 2.5 2.5 0 5.5 0h21c3 0 5.5 2.5 5.5 5.5zm-8 14.3c0-.8-.9-1.3-1.6-.8-.7.5-1.5.8-2.4.8h-8c-.9 0-1.8-.3-2.4-.8-.6-.5-1.6 0-1.6.8v2c0 2.2 1.8 4 4 4h8c2.2 0 4-1.8 4-4v-2zm0-9.6c0-2.2-1.8-4-4-4h-8c-2.2 0-4 1.8-4 4v4c0 2.2 1.8 4 4 4h8c2.2 0 4-1.8 4-4v-4zm-12 4c-.6 0-1 .4-1 1s.4 1 1 1 1-.4 1-1-.4-1-1-1zm0 7.6c-.6 0-1 .4-1 1s.4 1 1 1 1-.4 1-1-.4-1-1-1z" fill="#403d39"/></svg>